<svg width="16" height="23" viewBox="0 0 16 23" fill="none" xmlns="http://www.w3.org/2000/svg">
<path d="M8.01488 0.000261665C7.63478 0.000303435 7.25517 0.028789 6.87894 0.0854985C6.5026 0.142165 6.13059 0.226928 5.76577 0.339144C5.40095 0.4514 5.04425 0.59082 4.69839 0.756341C4.35254 0.921888 4.01842 1.11311 3.69858 1.32855C3.37871 1.54393 3.07393 1.78297 2.78657 2.04386C2.49923 2.30477 2.23004 2.58686 1.98105 2.88797C1.73204 3.18909 1.50388 3.50847 1.29831 3.84366C1.09277 4.17883 0.910332 4.52896 0.752398 4.89137C0.594444 5.2538 0.461397 5.62759 0.354273 6.00989C0.24714 6.39218 0.166204 6.78201 0.112082 7.17639C0.057999 7.57074 0.0308638 7.96864 0.0308838 8.36704C0.0308572 8.76549 0.0579924 9.16343 0.112082 9.55783C0.166204 9.95222 0.24714 10.342 0.354273 10.7243C0.461403 11.1066 0.59445 11.4803 0.752398 11.8427C0.910326 12.2052 1.09276 12.5553 1.29831 12.8906C1.50389 13.2257 1.73205 13.545 1.98105 13.8461C2.11857 14.0016 2.26169 14.1516 2.41008 14.2957L3.88092 12.9358L3.9093 12.9356C3.85883 12.8921 3.80905 12.8478 3.75997 12.8027C3.53703 12.5703 3.33195 12.3201 3.14663 12.0542C2.96133 11.7884 2.79636 11.5077 2.65326 11.2149C2.51015 10.9221 2.38934 10.618 2.29194 10.3055C2.19453 9.99298 2.12083 9.67294 2.07152 9.34835C2.02217 9.02378 1.99737 8.69566 1.99735 8.36704C1.99737 8.03841 2.02217 7.7103 2.07152 7.38573C2.12083 7.06119 2.19453 6.7412 2.29194 6.4287C2.38934 6.11615 2.51015 5.81205 2.65326 5.51923C2.79637 5.22644 2.96134 4.94582 3.14663 4.67997C3.33195 4.41414 3.53703 4.16389 3.75997 3.93155C3.98287 3.69916 4.22294 3.48539 4.47797 3.29221C4.73305 3.09908 5.00229 2.92715 5.28321 2.778C5.5641 2.6288 5.85579 2.50284 6.1556 2.40128C6.45542 2.29973 6.76243 2.2229 7.07379 2.17149C7.38516 2.12006 7.69991 2.09422 8.01516 2.0942C8.12771 2.0942 8.24023 2.09749 8.3526 2.10406C8.46495 2.11065 8.57709 2.12051 8.68891 2.13365C8.80078 2.14678 8.91227 2.16317 9.02326 2.18282C9.13418 2.20251 9.24454 2.22543 9.35423 2.25157C9.46397 2.27767 9.57298 2.30698 9.68113 2.33945C9.78926 2.37189 9.89649 2.40748 10.0027 2.44618C10.1089 2.48496 10.2141 2.52683 10.3181 2.57176C10.422 2.61664 10.5248 2.66455 10.6262 2.71543C10.7276 2.76633 10.8276 2.82018 10.9261 2.87693C11.0246 2.93365 11.1216 2.99324 11.2169 3.05564C11.3122 3.11806 11.4058 3.18325 11.4976 3.25114C11.5893 3.31906 11.6792 3.38965 11.7671 3.46283C11.8551 3.53597 11.9411 3.61166 12.0251 3.68983C12.109 3.768 12.1908 3.8486 12.2704 3.93155C12.3499 4.01451 12.4273 4.09978 12.5023 4.18726C12.5773 4.27472 12.6499 4.36436 12.72 4.45607C12.7902 4.54779 12.8579 4.64155 12.923 4.73724C12.9882 4.83289 13.0507 4.93044 13.1106 5.02975C13.1705 5.12909 13.2277 5.23017 13.2821 5.33286C13.3365 5.4355 13.3882 5.53972 13.4371 5.64539C13.4859 5.7511 13.5318 5.85821 13.5749 5.9666C13.6179 6.07498 13.6581 6.1846 13.6953 6.29533C13.7324 6.40604 13.7666 6.51782 13.7978 6.63053C13.829 6.74323 13.8571 6.85683 13.8821 6.97118C13.9072 7.08558 13.9291 7.2007 13.948 7.31639C13.9668 7.43201 13.9826 7.54815 13.9952 7.66469C14.0078 7.78128 14.0173 7.89821 14.0236 8.01535C14.0238 8.01859 14.0239 8.02182 14.0241 8.02506C14.0243 8.02835 14.0245 8.03164 14.0247 8.03493C14.0249 8.03817 14.0251 8.04141 14.0253 8.04464C14.0255 8.04788 14.0257 8.05112 14.0258 8.05436C14.026 8.05765 14.0262 8.06094 14.0264 8.06423C14.0266 8.06746 14.0268 8.0707 14.027 8.07394C14.0272 8.07718 14.0274 8.08042 14.0275 8.08366C14.0277 8.08689 14.0279 8.09013 14.0281 8.09337C14.0282 8.09666 14.0282 8.09995 14.0283 8.10324C14.0285 8.10647 14.0287 8.10971 14.0289 8.11295C14.0291 8.11624 14.0293 8.11953 14.0294 8.12282C14.0295 8.12606 14.0296 8.12929 14.0296 8.13253C14.0298 8.13577 14.03 8.13901 14.0302 8.14225C14.0303 8.14554 14.0303 8.14883 14.0304 8.15211C14.0305 8.15535 14.0305 8.15859 14.0306 8.16183C14.0306 8.16507 14.0307 8.1683 14.0308 8.17154C14.0308 8.17483 14.0309 8.17812 14.031 8.18141C14.031 8.18465 14.0311 8.18789 14.0312 8.19112C14.0312 8.19436 14.0313 8.1976 14.0313 8.20084C14.0314 8.20413 14.0315 8.20742 14.0315 8.21071C14.0316 8.21395 14.0316 8.21718 14.0317 8.22042C14.0317 8.22371 14.0318 8.227 14.0319 8.23029C14.0319 8.23353 14.032 8.23676 14.032 8.24C14.0321 8.24324 14.0321 8.24648 14.0322 8.24972C14.0322 8.25301 14.0323 8.2563 14.0323 8.25958C14.0324 8.26282 14.0324 8.26606 14.0325 8.2693C14.0325 8.27254 14.0326 8.27578 14.0326 8.27901C14.0327 8.2823 14.0327 8.28559 14.0328 8.28888C14.0328 8.28882 14.0328 8.28895 14.0328 8.28888C14.0328 8.28901 14.0328 8.29043 14.0328 8.29056C14.0328 8.29069 14.0328 8.29173 14.0328 8.29186C14.0328 8.29181 14.0328 8.29191 14.0328 8.29186C14.0328 8.29191 14.0328 8.29306 14.0328 8.29311C14.0328 8.29305 14.0328 8.29317 14.0328 8.29311C14.0328 8.29324 14.0328 8.29447 14.0328 8.2946C14.0328 8.29473 14.0328 8.29577 14.0328 8.29589C14.0328 8.29583 14.0328 8.29596 14.0328 8.29589C14.0328 8.29602 14.0328 8.29745 14.0328 8.29758C14.0328 8.29753 14.0328 8.29762 14.0328 8.29758C14.0328 8.30086 14.0328 8.30488 14.0329 8.30817C14.0329 8.3114 14.033 8.31464 14.033 8.31788C14.033 8.31775 14.033 8.31801 14.033 8.31788C14.033 8.31801 14.033 8.31943 14.033 8.31956C14.033 8.31969 14.033 8.32073 14.033 8.32086C14.033 8.32092 14.033 8.32209 14.033 8.32215C14.033 8.3221 14.033 8.3222 14.033 8.32215C14.033 8.3222 14.033 8.32355 14.033 8.3236C14.033 8.32372 14.033 8.32496 14.033 8.32509C14.033 8.32521 14.033 8.32625 14.033 8.32638C14.033 8.32651 14.033 8.32755 14.033 8.32768C14.033 8.32736 14.033 8.328 14.033 8.32768L16 8.28374C15.9999 8.28203 15.9999 8.28031 15.9998 8.27859C15.9998 8.27535 15.9997 8.27211 15.9997 8.26888C15.9997 8.26564 15.9996 8.2624 15.9996 8.25916C15.9996 8.25903 15.9996 8.2577 15.9996 8.25757C15.9996 8.25744 15.9996 8.25611 15.9996 8.25598C15.9996 8.25585 15.9996 8.25485 15.9996 8.25473C15.9996 8.25468 15.9996 8.25478 15.9996 8.25473C15.9996 8.2546 15.9996 8.25345 15.9996 8.25333C15.9996 8.2532 15.9996 8.2522 15.9996 8.25207C15.9996 8.25201 15.9996 8.25074 15.9996 8.25067C15.9996 8.25062 15.9996 8.25072 15.9996 8.25067C15.9996 8.25061 15.9996 8.24953 15.9996 8.24947C15.9995 8.24623 15.9995 8.24299 15.9994 8.23975C15.9994 8.23646 15.9993 8.23317 15.9993 8.22989C15.9992 8.22665 15.9992 8.22341 15.9991 8.22017C15.999 8.21693 15.999 8.21369 15.9989 8.21046C15.9989 8.20717 15.9989 8.20388 15.9988 8.20059C15.9988 8.19735 15.9987 8.19411 15.9987 8.19087C15.9986 8.18758 15.9985 8.1843 15.9985 8.18101C15.9984 8.17777 15.9984 8.17453 15.9983 8.17129C15.9983 8.16805 15.9982 8.16481 15.9981 8.16158C15.9981 8.15829 15.998 8.155 15.998 8.15171C15.9979 8.14847 15.9979 8.14523 15.9978 8.142C15.9978 8.13871 15.9977 8.13542 15.9976 8.13213C15.9976 8.12889 15.9975 8.12565 15.9974 8.12241C15.9974 8.11918 15.9973 8.11594 15.9972 8.1127C15.9972 8.10941 15.9972 8.10612 15.9971 8.10283C15.997 8.09959 15.997 8.09636 15.9969 8.09312C15.9969 8.08988 15.9968 8.08664 15.9967 8.0834C15.9965 8.08011 15.9964 8.07683 15.9962 8.07354C15.9961 8.0703 15.996 8.06706 15.996 8.06382C15.9959 8.06053 15.9959 8.05724 15.9958 8.05395C15.9956 8.05072 15.9954 8.04748 15.9952 8.04424C15.9952 8.041 15.9951 8.03776 15.995 8.03452C15.9948 8.03124 15.9946 8.02795 15.9945 8.02466C15.9943 8.02142 15.9941 8.01818 15.9939 8.01494C15.9937 8.01171 15.9935 8.00847 15.9933 8.00523C15.9931 8.00194 15.9929 7.99865 15.9927 7.99536C15.9926 7.99212 15.9924 7.98889 15.9922 7.98565C15.992 7.98241 15.9918 7.97917 15.9916 7.97593C15.9914 7.97264 15.9912 7.96935 15.991 7.96607C15.9909 7.96283 15.9907 7.95959 15.9905 7.95635C15.9841 7.81961 15.9745 7.68306 15.9617 7.54681C15.9488 7.41054 15.9328 7.27462 15.9136 7.13918C15.8945 7.00373 15.8721 6.86879 15.8466 6.73449C15.8211 6.60026 15.7925 6.4667 15.7608 6.33393C15.729 6.2011 15.6942 6.06911 15.6563 5.93808C15.6183 5.80706 15.5774 5.67703 15.5333 5.54811C15.4893 5.41919 15.4423 5.29142 15.3923 5.16492C15.3423 5.03845 15.2893 4.91328 15.2334 4.78953C15.1776 4.66576 15.1188 4.54344 15.0573 4.42268C14.9957 4.30195 14.9313 4.18282 14.8641 4.0654C14.7969 3.94796 14.7271 3.83227 14.6545 3.71842C14.5819 3.60462 14.5066 3.49271 14.4287 3.38278C14.3509 3.27282 14.2705 3.16488 14.1877 3.05906C14.1048 2.95319 14.0194 2.84948 13.9317 2.748C13.844 2.64658 13.7539 2.54743 13.6616 2.45063C13.5692 2.3538 13.4745 2.25936 13.3777 2.1674C13.2809 2.07546 13.1819 1.98603 13.081 1.89918C12.98 1.81234 12.877 1.72811 12.772 1.64656C12.6671 1.56502 12.5602 1.48619 12.4516 1.41014C12.343 1.33405 12.2326 1.26077 12.1205 1.19035C12.0084 1.11997 11.8947 1.05248 11.7795 0.987939C11.6643 0.923412 11.5476 0.861859 11.4295 0.803335C11.3114 0.744823 11.1919 0.689357 11.0712 0.636987C10.9505 0.584592 10.8286 0.53531 10.7056 0.489186C10.5825 0.443065 10.4584 0.400115 10.3334 0.360375C10.2084 0.320586 10.0825 0.284017 9.9558 0.250703C9.82906 0.217446 9.70156 0.187456 9.57341 0.160757C9.44529 0.134045 9.31657 0.11063 9.18736 0.090536C9.05811 0.0704699 8.92841 0.0537325 8.79837 0.0403373C8.66835 0.0269287 8.53804 0.0168654 8.40755 0.0101581C8.27714 0.00341778 8.1466 3.11388e-05 8.01603 3.32044e-10L8.01488 0.000261665Z" fill="#519E4A"/>
<path d="M14.1675 19.0302H15.8623C15.9358 19.0302 15.9954 18.97 15.9954 18.8958V10.5998C15.9954 10.5256 15.9358 10.4654 15.8623 10.4654H14.1675C14.094 10.4654 14.0344 10.5256 14.0344 10.5998V18.8958C14.0344 18.97 14.094 19.0302 14.1675 19.0302Z" fill="#B93D3D"/>
<path d="M14.0941 22.7731H15.9361C15.969 22.7731 15.9957 22.7462 15.9957 22.7129V21.0497C15.9957 21.0164 15.969 20.9895 15.9361 20.9895H14.0941C14.0612 20.9895 14.0346 21.0164 14.0346 21.0497V22.7129C14.0346 22.7462 14.0612 22.7731 14.0941 22.7731Z" fill="#B93D3D"/>
<path d="M4.83792 13.6494L3.66364 15.3273C3.68696 15.3444 3.71037 15.3614 3.73387 15.3783C3.89399 15.4855 4.05771 15.5868 4.22472 15.6818C4.39172 15.7769 4.5619 15.8657 4.73495 15.948C4.908 16.0303 5.08381 16.1062 5.26204 16.1754C5.44028 16.2446 5.62082 16.307 5.80331 16.3627C5.98576 16.4183 6.17005 16.4671 6.35583 16.509C6.54161 16.5509 6.72875 16.5858 6.91691 16.6137C6.97967 16.6214 8.49247 16.6588 8.55539 16.6649L7.18579 14.5526C7.10014 14.5452 7.01467 14.5359 6.92941 14.5247C6.62081 14.4653 6.31723 14.3804 6.02148 14.2709C5.72574 14.1615 5.43874 14.0278 5.16314 13.871C5.05247 13.8008 4.94401 13.7269 4.83792 13.6494Z" fill="#B93D3D"/>
</svg>
